<?xml version="1.0" standalone="no"?>
<!DOCTYPE svg PUBLIC "-//W3C//DTD SVG 20010904//EN"
 "http://www.w3.org/TR/2001/REC-SVG-20010904/DTD/svg10.dtd">
<svg version="1.0" xmlns="http://www.w3.org/2000/svg"
 width="500.000000pt" height="500.000000pt" viewBox="0 0 500.000000 500.000000"
 preserveAspectRatio="xMidYMid meet">

<g transform="translate(0.000000,500.000000) scale(0.100000,-0.100000)"
fill="#000000" stroke="none">
<path d="M0 2500 l0 -2500 2500 0 2500 0 0 2500 0 2500 -2500 0 -2500 0 0
-2500z m2559 984 c9 -8 -6 -13 -99 -34 -100 -21 -242 -65 -180 -55 116 19 241
35 282 35 26 0 50 5 53 10 3 6 15 10 27 10 16 0 19 -5 16 -25 -5 -24 -4 -24
51 -19 79 9 209 -18 300 -61 75 -36 146 -83 138 -91 -3 -3 -56 11 -118 30
-155 47 -220 56 -119 18 42 -16 116 -48 164 -71 49 -22 96 -40 104 -39 22 4
41 -30 23 -41 -17 -11 -41 -3 -41 13 0 10 -31 26 -137 72 -18 8 -33 13 -33 11
0 -2 31 -24 68 -49 37 -25 106 -81 153 -125 l84 -79 85 18 c127 25 326 42 413
34 83 -8 160 -40 165 -68 4 -23 -14 -23 -45 1 -46 37 -199 54 -333 37 -106
-14 -270 -49 -270 -58 0 -5 -8 -7 -18 -4 -10 4 -70 -10 -133 -30 -297 -93
-502 -206 -578 -318 -89 -131 -52 -219 149 -350 52 -35 154 -101 225 -148 188
-123 213 -154 160 -196 -40 -31 -168 -45 -274 -31 -105 15 -127 52 -66 113 40
40 92 59 149 54 63 -5 57 -26 -8 -26 -40 0 -62 -5 -85 -21 -34 -25 -48 -58
-32 -74 17 -17 224 -22 261 -7 64 27 38 52 -241 231 -210 134 -275 187 -306
251 -30 59 -29 107 3 170 48 95 167 191 334 271 103 48 303 119 377 133 18 3
33 10 33 14 0 15 -150 150 -221 198 -70 47 -132 82 -143 82 -3 0 23 -28 58
-63 64 -64 150 -193 139 -210 -3 -5 -46 32 -97 82 -99 98 -203 185 -281 237
-63 41 -133 54 -284 53 l-116 -1 70 -14 c76 -16 261 -103 254 -119 -2 -5 -8
-9 -12 -7 -56 18 -228 57 -327 73 -156 26 -222 22 -313 -19 -72 -33 -191 -102
-185 -107 2 -2 30 5 63 16 70 24 275 39 275 21 0 -7 -12 -14 -27 -18 -90 -19
-224 -62 -338 -106 -108 -43 -137 -59 -175 -97 -42 -42 -99 -122 -143 -202
-10 -17 -20 -29 -24 -26 -6 7 47 105 82 153 13 17 38 68 55 113 38 98 103 188
183 252 65 52 175 114 185 105 3 -4 -40 -49 -96 -102 -56 -52 -111 -109 -124
-127 -18 -27 -14 -25 28 14 28 25 95 79 150 119 54 40 106 82 115 93 18 23 49
17 49 -8 0 -13 6 -11 33 8 100 76 268 122 402 110 33 -2 62 -6 64 -9z m-1109
-968 c0 -98 -121 -490 -216 -700 -30 -66 -52 -121 -49 -124 2 -3 30 2 62 11
118 32 330 61 528 73 l120 7 45 41 c25 23 74 63 108 90 55 42 62 51 50 62 -12
12 -20 11 -54 -8 -48 -26 -74 -19 -74 19 -1 28 -1 28 -43 -18 -40 -44 -45 -47
-92 -45 -30 0 -64 -6 -84 -16 -47 -24 -76 -9 -67 35 7 35 1 32 -23 -15 -10
-18 -30 -40 -45 -48 -25 -14 -28 -13 -37 3 -10 17 -12 18 -30 1 -13 -12 -29
-15 -52 -11 -23 4 -40 0 -58 -14 -29 -23 -52 -24 -69 -4 -32 39 76 165 118
139 26 -17 26 -34 -1 -34 -23 0 -44 -17 -62 -50 -4 -8 6 -2 23 14 34 31 62 30
62 -4 0 -24 8 -25 32 -3 10 9 18 30 18 48 0 17 3 35 7 38 11 12 33 -14 33 -39
0 -40 16 -28 59 46 54 91 84 93 46 4 l-15 -36 40 36 c40 36 89 49 91 24 1 -7
2 -17 4 -23 1 -5 3 -22 3 -37 3 -39 26 -26 51 28 19 39 51 61 51 34 0 -6 14
-4 31 5 42 22 62 13 57 -25 -3 -17 -3 -30 0 -30 15 0 58 47 67 73 5 17 18 33
27 35 16 3 17 -2 11 -45 -6 -45 -5 -47 11 -34 9 8 29 34 43 58 31 53 53 57 53
8 0 -19 3 -35 6 -35 3 0 28 23 55 51 35 36 55 49 71 47 36 -5 34 -34 -1 -41
-21 -5 -35 -16 -46 -39 l-16 -33 29 33 c32 36 62 42 62 13 0 -32 18 -34 45 -7
34 34 49 33 31 -2 -18 -34 -57 -57 -87 -49 -15 4 -36 -2 -57 -15 -27 -17 -38
-19 -57 -10 -31 14 -52 -5 -60 -56 -24 -138 -52 -200 -106 -227 -67 -35 -186
-26 -212 15 -9 16 -23 20 -67 20 -129 -1 -423 -43 -583 -85 -84 -22 -89 -25
-145 -85 -50 -55 -62 -62 -96 -64 -26 -1 -42 4 -49 15 -18 28 17 65 93 101
l69 33 50 95 c100 191 180 432 255 763 9 40 36 35 36 -7z m1710 -13 c0 -10
-13 -66 -29 -125 -16 -60 -27 -108 -25 -108 3 0 16 7 29 16 35 23 54 11 61
-36 4 -22 10 -40 14 -40 4 0 25 20 48 45 50 55 85 73 107 55 11 -9 12 -16 5
-25 -5 -6 -6 -15 -2 -19 4 -4 7 -16 7 -27 0 -38 21 -23 49 36 l30 60 53 2 c35
1 53 -2 53 -10 0 -7 5 -4 11 6 16 27 42 22 37 -8 -3 -14 -1 -25 3 -25 5 0 9 4
9 8 0 5 16 17 35 28 31 16 37 17 45 4 8 -12 13 -11 34 9 34 32 62 24 59 -17
-4 -40 12 -35 59 21 45 55 82 75 103 57 22 -18 18 -30 -9 -30 -15 0 -33 -11
-45 -26 -31 -40 -25 -54 7 -16 33 39 62 43 62 7 0 -14 4 -25 8 -25 5 0 19 11
32 25 13 14 27 25 32 25 17 0 7 -28 -21 -54 -24 -23 -36 -27 -63 -23 -22 3
-39 -1 -51 -12 -11 -9 -39 -17 -65 -18 -26 -1 -56 -3 -67 -5 -16 -2 -21 4 -25
31 l-5 35 -28 -37 c-35 -46 -66 -65 -78 -46 -4 7 -5 17 -3 21 12 20 -15 5 -41
-22 -16 -16 -35 -30 -43 -30 -14 0 -13 15 5 75 5 17 4 18 -9 7 -13 -10 -17
-10 -22 4 -6 15 -9 15 -30 -5 -13 -12 -31 -39 -41 -61 -14 -32 -23 -39 -54
-43 -20 -2 -43 -1 -51 3 -9 5 -24 1 -39 -11 -25 -21 -66 -25 -76 -8 -4 6 -19
7 -37 4 -35 -8 -48 5 -48 49 0 27 -1 28 -18 13 -9 -8 -31 -38 -47 -66 -30 -50
-55 -66 -55 -34 0 20 89 342 102 366 5 9 13 17 18 17 6 0 10 -8 10 -17z m360
-502 c0 -27 -19 -36 -37 -18 -18 18 -9 37 18 37 12 0 19 -7 19 -19z m-111
-248 c-18 -32 -46 -78 -64 -103 -18 -25 -40 -70 -50 -100 -38 -119 -136 -243
-249 -315 -67 -43 -126 -69 -126 -56 0 5 33 38 74 75 41 36 98 94 128 128 l53
62 -75 -65 c-41 -35 -114 -93 -162 -127 -47 -35 -89 -70 -92 -78 -8 -21 -37
-17 -43 5 -5 18 -9 17 -58 -15 -91 -61 -182 -87 -322 -92 -77 -3 -123 -1 -123
5 0 6 53 23 117 38 65 15 133 34 153 41 l35 14 -35 -5 c-121 -20 -241 -35
-275 -35 -23 0 -46 -5 -52 -11 -17 -17 -46 -2 -40 20 4 16 -3 18 -82 17 -110
-1 -174 15 -287 70 -141 69 -164 107 -38 64 61 -21 206 -60 221 -60 4 1 -46
22 -112 49 -66 26 -136 56 -155 66 -19 10 -48 21 -65 25 -20 4 -30 12 -30 25
0 26 20 30 42 7 10 -11 32 -26 49 -35 50 -25 144 -66 144 -62 0 2 -20 15 -45
29 -74 44 -193 145 -256 218 -94 109 -69 99 49 -20 107 -109 180 -166 279
-216 l52 -26 -64 65 c-65 66 -149 191 -138 207 3 5 53 -37 111 -94 122 -119
252 -220 319 -250 37 -16 73 -21 192 -24 l146 -5 -74 21 c-108 29 -262 106
-246 122 3 3 63 -10 133 -28 149 -38 349 -68 409 -61 43 5 246 99 292 135 21
17 15 17 -50 -5 -83 -28 -279 -45 -279 -25 0 6 19 16 43 22 95 23 327 103 402
139 55 26 89 50 111 77 46 59 108 154 134 204 13 25 25 39 27 33 3 -7 -10 -39
-28 -70z m-1949 51 c11 -12 10 -18 -3 -32 -16 -15 -18 -15 -34 0 -13 14 -14
20 -3 32 7 9 16 16 20 16 4 0 13 -7 20 -16z"/>
<path d="M2352 3469 c-28 -5 -77 -18 -108 -28 -58 -21 -149 -70 -142 -77 3 -2
31 6 64 19 32 13 104 36 159 51 155 44 156 44 115 44 -19 0 -59 -4 -88 -9z"/>
<path d="M2585 3415 c-5 -2 -50 -7 -100 -12 l-90 -8 90 -5 c116 -6 150 -2 134
16 -12 14 -16 15 -34 9z"/>
<path d="M2740 3374 c36 -8 119 -28 184 -44 66 -17 121 -28 123 -26 2 2 -24
15 -57 30 -76 34 -178 56 -255 55 l-60 -1 65 -14z"/>
<path d="M1932 3296 c-40 -30 -75 -56 -78 -59 -3 -3 30 12 73 33 44 22 88 48
98 60 18 19 18 20 -1 20 -10 -1 -52 -25 -92 -54z"/>
<path d="M2200 3341 c0 -5 29 -12 65 -16 36 -4 114 -17 172 -31 59 -13 108
-22 110 -20 8 7 -102 48 -166 62 -74 15 -181 19 -181 5z"/>
<path d="M1825 3314 c-63 -42 -144 -124 -186 -188 -47 -71 -51 -96 -7 -41 18
22 79 88 137 148 58 59 103 107 100 107 -2 0 -22 -12 -44 -26z"/>
<path d="M2740 3327 c0 -3 24 -22 53 -44 28 -22 97 -80 152 -129 90 -80 96
-84 68 -43 -45 66 -139 149 -211 187 -34 18 -62 31 -62 29z"/>
<path d="M1915 3185 c-33 -7 -78 -21 -100 -30 -44 -18 -138 -76 -133 -81 2 -2
48 15 103 37 54 22 135 50 179 64 63 18 73 24 46 24 -19 -1 -62 -7 -95 -14z"/>
<path d="M1763 1990 c-33 -41 -28 -48 7 -10 17 18 30 34 30 36 0 12 -18 0 -37
-26z"/>
<path d="M2094 1907 c-82 -57 -144 -107 -144 -117 0 -5 15 -10 33 -12 47 -4
35 -22 -20 -28 -55 -6 -46 -17 21 -26 62 -9 117 16 139 61 15 31 42 154 35
160 -2 2 -30 -15 -64 -38z"/>
<path d="M1013 1576 c-15 -13 -25 -27 -22 -30 3 -3 21 8 40 24 19 16 29 29 22
30 -7 0 -25 -11 -40 -24z"/>
<path d="M3306 2248 c-14 -18 -23 -34 -20 -37 2 -2 5 -2 7 0 1 2 15 19 31 37
17 17 25 32 19 32 -7 0 -23 -14 -37 -32z"/>
<path d="M3224 1473 c-15 -21 -76 -87 -134 -147 l-105 -109 61 41 c69 46 149
130 189 197 33 58 27 68 -11 18z"/>
<path d="M1847 1449 c43 -62 138 -148 202 -182 29 -16 54 -27 57 -24 2 2 -21
23 -52 47 -31 23 -97 79 -147 124 -86 76 -89 78 -60 35z"/>
<path d="M3120 1468 c-25 -11 -103 -40 -175 -64 -85 -28 -119 -43 -99 -44 76
-1 247 60 313 111 30 24 18 23 -39 -3z"/>
<path d="M2909 1280 c-83 -42 -115 -70 -82 -70 18 0 163 94 163 105 0 7 3 8
-81 -35z"/>
<path d="M2350 1269 c89 -43 258 -71 309 -51 21 7 13 10 -45 16 -38 4 -109 15
-159 26 -159 33 -155 32 -105 9z"/>
<path d="M1855 1235 c74 -37 194 -65 273 -65 62 1 38 14 -53 29 -59 10 -193
42 -270 65 -11 4 12 -9 50 -29z"/>
<path d="M2038 1223 c7 -3 16 -2 19 1 4 3 -2 6 -13 5 -11 0 -14 -3 -6 -6z"/>
<path d="M2691 1178 c-41 -16 -129 -45 -195 -63 -117 -33 -119 -34 -56 -28 36
3 92 12 125 20 65 16 178 67 196 89 6 8 10 14 8 13 -2 -1 -37 -14 -78 -31z"/>
<path d="M2245 1172 c-77 -19 57 -29 160 -12 l50 7 -46 2 c-25 0 -66 3 -90 5
-24 3 -57 1 -74 -2z"/>
</g>
</svg>
